<mxfile host="app.diagrams.net" agent="Mozilla/5.0 (Windows NT 10.0; Win64; x64; rv:134.0) Gecko/20100101 Firefox/134.0" version="26.0.8">
  <diagram id="C5RBs43oDa-KdzZeNtuy" name="Page-1">
    <mxGraphModel dx="1250" dy="781" grid="1" gridSize="10" guides="1" tooltips="1" connect="1" arrows="1" fold="1" page="1" pageScale="1" pageWidth="827" pageHeight="1169" math="0" shadow="0">
      <root>
        <mxCell id="WIyWlLk6GJQsqaUBKTNV-0" />
        <mxCell id="WIyWlLk6GJQsqaUBKTNV-1" parent="WIyWlLk6GJQsqaUBKTNV-0" />
        <mxCell id="UWFqU73YBer2xQN_WlqB-1" value="Registrar Venda" style="shape=umlFrame;whiteSpace=wrap;html=1;pointerEvents=0;recursiveResize=0;container=1;collapsible=0;width=160;" vertex="1" parent="WIyWlLk6GJQsqaUBKTNV-1">
          <mxGeometry x="40" y="40" width="560" height="360" as="geometry" />
        </mxCell>
        <mxCell id="UWFqU73YBer2xQN_WlqB-5" style="edgeStyle=orthogonalEdgeStyle;rounded=0;orthogonalLoop=1;jettySize=auto;html=1;" edge="1" parent="UWFqU73YBer2xQN_WlqB-1" source="UWFqU73YBer2xQN_WlqB-2" target="UWFqU73YBer2xQN_WlqB-3">
          <mxGeometry relative="1" as="geometry" />
        </mxCell>
        <mxCell id="UWFqU73YBer2xQN_WlqB-2" value="" style="ellipse;fillColor=strokeColor;html=1;" vertex="1" parent="UWFqU73YBer2xQN_WlqB-1">
          <mxGeometry x="20" y="60" width="30" height="30" as="geometry" />
        </mxCell>
        <mxCell id="UWFqU73YBer2xQN_WlqB-3" value="Sistema verifica estoque disponível" style="html=1;align=center;verticalAlign=top;rounded=1;absoluteArcSize=1;arcSize=10;dashed=0;whiteSpace=wrap;" vertex="1" parent="UWFqU73YBer2xQN_WlqB-1">
          <mxGeometry x="140" y="160" width="180" height="40" as="geometry" />
        </mxCell>
        <mxCell id="UWFqU73YBer2xQN_WlqB-6" value="Usuário seleciona produto e quantidade" style="html=1;align=center;verticalAlign=top;rounded=1;absoluteArcSize=1;arcSize=10;dashed=0;whiteSpace=wrap;" vertex="1" parent="WIyWlLk6GJQsqaUBKTNV-1">
          <mxGeometry x="170" y="105" width="200" height="40" as="geometry" />
        </mxCell>
      </root>
    </mxGraphModel>
  </diagram>
</mxfile>
